<svg xmlns="http://www.w3.org/2000/svg" viewBox="0 0 314.14 314.14"><defs><style>.cls-1{fill:#4036cf;}.cls-2{fill:#5b05c4;}.cls-3{fill:#fff;}</style></defs><g id="Cover"><path class="cls-1" d="M230.23,86.22c-16.44,3.46-23.39-2.76-38.62-8.87s-46.31-18.2-81.44,3.42c-35.71,20.47-43,55.39-46.49,72.6s-2.36,26.91-13.9,40.07c0,0-22.66,20.92-16.79,32.09s32.49,5.8,43.8,2.8,22.64-3.26,30.1,2c7.26,5.1,43.22,22.49,78.59-.46,36.86-20,42.72-62.2,42.65-71.58-.06-9.66,6.24-19.86,14.66-28.59s26.92-30.16,21.4-41.55S230.23,86.22,230.23,86.22Zm-17.33,80c.56,2-4.16,30.55-29.24,47.81q-2.35,1.64-4.7,2.94t-4.81,2.72c-26.91,13.63-51.62,2.59-52.89,1s-1.25-5,2.7-6.45c0,0,19.17-6.56,43-21a254.45,254.45,0,0,0,39.48-28C209.71,162.4,212.33,164.2,212.9,166.22Zm-9.27-24.93C201,147,184.69,165,159.85,179.14c-24.36,15.08-47.17,20.33-53,19.63,0,0-13.69.56-18.82-10.06S76.67,154.6,85.4,131.52C93.09,111.2,105.49,100.8,116.85,94S143,81.54,162.94,85.45c22.63,4.44,37.52,22.8,43,33.21S203.63,141.29,203.63,141.29Z"/><path class="cls-2" d="M120.93,88.9c-30.42,20.77-37.09,52.58-40.33,68.75-3.45,17.21-2.36,26.9-13.9,40.06,0,0-22.66,20.92-16.79,32.09s32.48,5.8,43.8,2.81,22.64-3.27,30.1,2c7.26,5.11,43.22,22.49,78.58-.45,36.87-20,42.72-62.21,42.66-71.59-.06-9.65,6.24-19.86,14.66-28.59s26.92-30.16,21.4-41.54-34-1.94-34-1.94c-16.43,3.47-23.38-2.75-38.61-8.86S162.22,63.42,127.09,85q-3.24,1.86-6.16,3.86m108.88,81.6c.57,2-4.15,30.55-29.23,47.81-1.58,1.08-3.14,2.06-4.7,2.94s-3.12,1.86-4.82,2.71c-26.91,13.63-51.61,2.59-52.88,1s-1.25-5,2.7-6.45c0,0,19.17-6.56,43-21a255.06,255.06,0,0,0,39.48-28C226.62,166.68,229.25,168.47,229.81,170.5Zm-9.27-24.94c-2.58,5.68-18.93,23.7-43.77,37.85-24.36,15.08-47.17,20.33-53,19.64,0,0-13.69.55-18.83-10.06s-11.38-34.12-2.65-57.2c7.69-20.32,20.08-30.72,31.45-37.53s26.16-12.45,46.09-8.54c22.63,4.44,37.52,22.81,43,33.22S220.54,145.56,220.54,145.56Z"/><ellipse class="cls-3" cx="161.39" cy="154.93" rx="67.94" ry="73.7"/><path class="cls-1" d="M214.35,150c-4.56-35.72-35.56-60.81-70.2-55-20.06,3.86-34.65,17.37-42.85,35.71-11.85,29.93.91,66.61,29.17,79.16,21.88,9.65,49.23,3.86,63.82-17.38,8.2-12.55,12.76-27,10.94-42.47a54.59,54.59,0,0,0-33.73-43.44c-24.62-8.69-50.14,2.9-62,27,6.39-16.41,21-26.06,37.38-29.93,20.87-4.18,40,6.06,50.89,22.93a64,64,0,0,0-5.3-7.48c-23.71-27-66.55-20.27-83,12.55-11.85,26.06,0,61.78,27.36,71.43,21.88,7.73,47.4-3.86,56.52-25.1,7.29-19.3,3.64-40.54-10.94-54-16.41-15.45-44.67-14.48-59.26,4.82-15.5,20.27-8.2,53.09,12.76,63.71,11,5.18,24,3.84,34.46-2.53-3.59,2.36-7.33,4.38-10.76,6.4,14.59-5.8,26.45-16.42,28.27-33.79,2.73-24.13-17.32-41.51-38.29-40.54,16.41-1.93,31.91,8.68,38.29,25.09,6.38,20.28-7.29,42.48-26.44,49.23-10,2.9-21,1-30.09-4.82-12.76-9.65-21-24.13-19.14-41.51,3.28-20.13,18.34-34.77,35.71-38.18A39.63,39.63,0,0,0,136.57,115a41.36,41.36,0,0,1,33.11-2.66c25.52,9.66,37.37,41.51,26.43,66.61-12.76,29-49.23,38.61-73.84,20.27-19.45-15.1-25-41.9-17.18-64.12-6.38,16.9-5.36,36.48,5.33,51.57a50.38,50.38,0,0,0,54.84,21,47.2,47.2,0,0,1-32-.75c-21.68-8.2-35.47-33.11-33.54-57a74,74,0,0,0,1.63,23.22c-10-31.86,8.2-68.54,41-76.26,21-4.83,41,2.89,54.7,17.37,22.8,24.14,21,66.61-1.82,90.74-14.89,14.33-36.3,20.68-56,16.68,22.49,5,46.83-2.47,61.52-22.47C210.7,184.7,217.08,168.29,214.35,150Zm-31,27a31.94,31.94,0,0,1-6.42,7.91A38.39,38.39,0,0,0,183.35,177Zm18.23-19.31c.44,17-7.8,31.79-20,41.29C193.6,189.23,200.9,174.26,201.58,157.67Z"/><path class="cls-2" d="M225.26,151.08c-4.56-35.72-35.55-60.82-70.2-55-20.05,3.87-34.64,17.38-42.85,35.72-11.85,29.92.92,66.61,29.18,79.15,21.88,9.66,49.23,3.87,63.82-17.37,8.2-12.55,12.76-27,10.94-42.47a54.59,54.59,0,0,0-33.74-43.44c-24.61-8.69-50.14,2.89-62,27,6.38-16.41,21-26.07,37.38-29.93,20.87-4.18,40,6.06,50.89,22.93a65.29,65.29,0,0,0-5.31-7.48c-23.7-27-66.55-20.27-83,12.54-11.85,26.07,0,61.79,27.35,71.44,21.88,7.72,47.41-3.86,56.53-25.1,7.29-19.31,3.64-40.54-11-54.06-16.41-15.44-44.67-14.48-59.26,4.83-15.49,20.27-8.2,53.09,12.77,63.71,11,5.17,24,3.84,34.46-2.54-3.6,2.37-7.33,4.39-10.76,6.4,14.59-5.79,26.44-16.41,28.26-33.79,2.74-24.13-17.32-41.5-38.29-40.54,16.41-1.93,31.91,8.69,38.29,25.1,6.39,20.27-7.29,42.47-26.43,49.23-10,2.9-21,1-30.09-4.82-12.76-9.66-21-24.14-19.15-41.51,3.28-20.14,18.35-34.77,35.71-38.18a39.72,39.72,0,0,0-11.38,3.19,41.33,41.33,0,0,1,33.11-2.66C206.12,123.08,218,154.94,207,180c-12.76,29-49.23,38.62-73.85,20.28-19.44-15.1-25.05-41.91-17.17-64.12-6.38,16.89-5.36,36.48,5.32,51.57a50.42,50.42,0,0,0,54.84,21,47.32,47.32,0,0,1-32-.75c-21.68-8.2-35.46-33.12-33.53-57a74.18,74.18,0,0,0,1.62,23.21c-10-31.85,8.21-68.53,41-76.26,21-4.82,41,2.9,54.7,17.38,22.79,24.13,21,66.6-1.82,90.74-14.89,14.33-36.31,20.67-56.05,16.68,22.48,5,46.83-2.47,61.52-22.48C221.61,185.83,228,169.42,225.26,151.08Zm-31,27a32.45,32.45,0,0,1-6.42,7.92A39.12,39.12,0,0,0,194.27,178.1Zm18.23-19.3c.43,17-7.81,31.78-20,41.29C204.52,190.36,211.81,175.39,212.5,158.8Z"/><path d="M219.81,151.08c-4.56-35.72-35.56-60.82-70.21-55-20,3.87-34.64,17.38-42.84,35.72-11.85,29.92.91,66.61,29.17,79.15,21.88,9.66,49.23,3.87,63.82-17.37,8.2-12.55,12.76-27,10.94-42.47A54.58,54.58,0,0,0,177,107.64c-24.62-8.69-50.15,2.89-62,27,6.39-16.41,21-26.07,37.38-29.93,20.87-4.18,40,6.06,50.89,22.93a64,64,0,0,0-5.3-7.48c-23.71-27-66.56-20.27-83,12.54-11.85,26.07,0,61.79,27.35,71.44,21.88,7.72,47.41-3.86,56.53-25.1,7.29-19.31,3.64-40.54-10.94-54.06-16.41-15.44-44.67-14.48-59.26,4.83-15.5,20.27-8.21,53.09,12.76,63.71,11,5.17,24,3.84,34.46-2.54-3.6,2.37-7.33,4.39-10.76,6.4,14.59-5.79,26.44-16.41,28.27-33.79,2.73-24.13-17.32-41.5-38.29-40.54,16.41-1.93,31.91,8.69,38.29,25.1,6.38,20.27-7.3,42.47-26.44,49.23-10,2.9-21,1-30.09-4.82-12.76-9.66-21-24.14-19.14-41.51C121,130.94,136,116.31,153.41,112.9A39.79,39.79,0,0,0,142,116.09a41.33,41.33,0,0,1,33.11-2.66c25.53,9.65,37.38,41.51,26.44,66.6-12.76,29-49.23,38.62-73.85,20.28-19.44-15.1-25-41.91-17.17-64.12-6.38,16.89-5.36,36.48,5.33,51.57a50.4,50.4,0,0,0,54.83,21,47.32,47.32,0,0,1-32.05-.75c-21.68-8.2-35.46-33.12-33.53-57a73.9,73.9,0,0,0,1.63,23.21c-10-31.85,8.2-68.53,41-76.26,21-4.82,41,2.9,54.7,17.38,22.79,24.13,21,66.6-1.82,90.74-14.89,14.33-36.3,20.67-56,16.68,22.48,5,46.83-2.47,61.52-22.48C216.16,185.83,222.54,169.42,219.81,151.08Zm-31,27a32.45,32.45,0,0,1-6.42,7.92A38.78,38.78,0,0,0,188.81,178.1ZM207,158.8c.44,17-7.81,31.78-20,41.29C199.06,190.36,206.36,175.39,207,158.8Z"/><path class="cls-3" d="M239.31,88.07c-16.44,3.46-23.39-2.76-38.61-8.87S154.39,61,119.26,82.61c-35.71,20.47-43.05,55.4-46.5,72.61s-2.36,26.91-13.9,40.07c0,0-22.65,20.91-16.78,32.09s32.48,5.79,43.79,2.8,22.64-3.26,30.11,2c7.25,5.11,43.21,22.49,78.58-.45,36.86-20,42.72-62.21,42.66-71.59-.07-9.65,6.23-19.86,14.65-28.59S278.79,101.38,273.28,90,239.31,88.07,239.31,88.07Zm-17.33,80c.56,2-4.16,30.55-29.24,47.81q-2.36,1.62-4.7,2.94c-1.52,1-3.12,1.86-4.81,2.71-26.91,13.63-51.62,2.59-52.88,1s-1.26-5,2.69-6.45c0,0,19.17-6.56,43-21a254.85,254.85,0,0,0,39.48-28C218.79,164.25,221.41,166,222,168.07Zm-9.27-24.94c-2.58,5.68-18.94,23.7-43.77,37.85-24.37,15.09-47.18,20.33-53,19.64,0,0-13.69.56-18.82-10.06s-11.39-34.11-2.65-57.2c7.68-20.31,20.08-30.72,31.45-37.52S152.1,83.38,172,87.29c22.64,4.45,37.52,22.81,43,33.22S212.71,143.13,212.71,143.13Z"/></g></svg>